<?xml version="1.0" encoding="UTF-8" standalone="no"?>
<svg
   xmlns:dc="http://purl.org/dc/elements/1.1/"
   xmlns:cc="http://creativecommons.org/ns#"
   xmlns:rdf="http://www.w3.org/1999/02/22-rdf-syntax-ns#"
   xmlns:svg="http://www.w3.org/2000/svg"
   xmlns="http://www.w3.org/2000/svg"
   id="svg8"
   version="1.1"
   viewBox="0 0 84.666671 112.88889"
   height="4.4444447in"
   width="3.3333335in">
  <defs
     id="defs2" />
  <metadata
     id="metadata5">
    <rdf:RDF>
      <cc:Work
         rdf:about="">
        <dc:format>image/svg+xml</dc:format>
        <dc:type
           rdf:resource="http://purl.org/dc/dcmitype/StillImage" />
        <dc:title></dc:title>
      </cc:Work>
    </rdf:RDF>
  </metadata>
  <g
     id="layer1">
    <path
       id="path24"
       d="M 3.5277801,105.83333 V 98.77778 H 1.76389 0 V 52.91667 7.0555599 h 1.76389 1.7638901 v -1.76389 -1.76389 h 1.76389 1.76389 V 1.76389 0 H 42.33334 77.61111 v 1.76389 1.7638899 h 1.76389 1.76389 v 1.76389 1.76389 h 1.76389 1.76389 V 52.91667 98.77778 h -1.76389 -1.76389 v 7.05555 7.05556 H 42.33334 3.5277801 Z m 74.0833299,0 v -3.52777 H 42.33334 7.0555601 v 3.52777 3.52778 H 42.33334 77.61111 Z M 81.13889,52.91667 V 7.0555599 H 79.375 77.61111 v -1.76389 -1.76389 H 42.33334 7.0555601 v 1.76389 1.76389 h -1.76389 -1.76389 V 52.91667 98.77778 H 42.33334 81.13889 Z M 10.58334,86.43056 v -1.76389 h 3.52778 3.52777 v 1.76389 1.76388 h -3.52777 -3.52778 z m 38.80555,-3.52778 v -1.76389 h 10.58333 10.58334 v 1.76389 1.76389 H 59.97222 49.38889 Z M 14.11112,65.26389 V 63.5 H 12.34723 10.58334 V 38.80555 14.11111 h 1.76389 1.76389 v -1.76388 -1.76389 h 28.22222 28.22222 v 1.76389 1.76388 h 1.76388 1.76389 V 38.80555 63.5 h -1.76389 -1.76388 v 1.76389 1.76389 H 42.33334 14.11112 Z M 70.55556,38.80555 V 14.11111 H 42.33334 14.11112 V 38.80555 63.5 H 42.33334 70.55556 Z M 56.44444,58.20833 V 56.44444 H 52.91667 49.38889 V 54.68056 52.91667 H 40.56945 31.75 v 1.76389 1.76388 H 29.98611 28.22223 V 54.68056 52.91667 H 29.98611 31.75 v -1.76389 -1.76389 h 8.81945 8.81944 v 1.76389 1.76389 h 3.52778 3.52777 v 1.76389 1.76388 h 1.76389 1.76389 v 1.76389 1.76389 H 58.20833 56.44444 Z M 35.27778,44.09722 V 42.33333 H 33.51389 31.75 v -1.76389 -1.76389 h 1.76389 1.76389 v 1.76389 1.76389 h 3.52778 3.52778 v -1.76389 -1.76389 h 1.76389 1.76388 v 1.76389 1.76389 h -1.76388 -1.76389 v 1.76389 1.76389 H 38.80556 35.27778 Z M 21.16667,33.51389 V 31.75 h 1.76389 1.76389 v -1.76389 -1.76388 h -1.76389 -1.76389 v -1.76389 -1.76389 h 1.76389 1.76389 v 1.76389 1.76389 h 1.76389 1.76389 V 26.45834 24.69445 H 29.98611 31.75 v 1.76389 1.76389 H 29.98611 28.22223 V 29.98611 31.75 H 29.98611 31.75 v 1.76389 1.76389 H 29.98611 28.22223 V 33.51389 31.75 h -1.76389 -1.76389 v 1.76389 1.76389 h -1.76389 -1.76389 z m 28.22222,0 V 31.75 h 1.76389 1.76389 v -1.76389 -1.76388 h -1.76389 -1.76389 v -1.76389 -1.76389 h 1.76389 1.76389 v 1.76389 1.76389 h 1.76389 1.76388 v -1.76389 -1.76389 h 1.76389 1.76389 v 1.76389 1.76389 H 58.20833 56.44444 V 29.98611 31.75 h 1.76389 1.76389 v 1.76389 1.76389 H 58.20833 56.44444 V 33.51389 31.75 h -1.76388 -1.76389 v 1.76389 1.76389 h -1.76389 -1.76389 z"
       style="fill:#000000;stroke-width:0.352778" />
  </g>
</svg>
